<svg width="103" height="171" viewBox="0 0 103 171" fill="none" xmlns="http://www.w3.org/2000/svg">
<g opacity="0.6">
<path d="M91.9394 30.7987L91.9874 15.1236L11.2336 14.8552L11.1776 30.5304C4.69333 34.7294 0.39979 41.9434 0.367808 50.1677L1.88465e-05 159.144C-0.0239674 165.332 22.8509 170.407 51.0828 170.502C79.3226 170.596 102.222 165.663 102.238 159.483L102.613 50.4992C102.637 42.2828 98.3917 35.0372 91.9394 30.7987Z" fill="#84BCD5"/>
<path d="M90.5562 31.4381L90.6122 16.2997L12.6088 16.0392L12.5528 31.1776C6.29242 35.2345 2.1428 42.2039 2.11082 50.152L1.76701 151.291C1.75102 157.265 23.8344 162.175 51.1068 162.262C78.3792 162.348 100.503 157.589 100.527 151.614L100.862 50.4756C100.894 42.5275 96.7926 35.5345 90.5562 31.4381Z" fill="#91D7EE"/>
<path d="M10.8395 5.96833L10.8113 14.2321L93.0682 14.5062L93.0965 6.24244L10.8395 5.96833Z" fill="#4BBADB"/>
<path d="M52.9457 20.7037C28.6476 20.6248 10.6579 18.841 10.3941 18.8094C8.18734 18.5884 6.57227 16.631 6.80413 14.4447C7.02801 12.2584 9.01087 10.6798 11.2176 10.9008C11.6174 10.9403 51.3387 14.863 92.2593 11.1692C94.474 10.964 96.4329 12.5741 96.6407 14.7604C96.8406 16.9467 95.2096 18.8805 93.0028 19.0857C79.0188 20.3564 65.1787 20.7432 52.9457 20.7037Z" fill="#91D7EE"/>
<path d="M53.4174 11.8165C29.1193 11.7376 11.1296 9.9538 10.8658 9.92223C8.65107 9.70123 7.04399 7.74381 7.26786 5.5575C7.49173 3.37908 9.4746 1.79263 11.6813 2.01363C12.0811 2.05309 51.8024 5.97582 92.7229 2.27409C94.9377 2.06888 96.8965 3.6869 97.1044 5.86532C97.3043 8.05163 95.6812 9.98538 93.4665 10.1906C79.4825 11.4613 65.6504 11.856 53.4174 11.8165Z" fill="#91D7EE"/>
<path opacity="0.6" d="M93.4666 10.1985C95.6253 10.0012 97.2244 8.1622 97.1125 6.03903C55.1685 11.414 19.1171 7.15981 7.29186 5.4155C7.28387 5.46285 7.27587 5.51021 7.26788 5.55757C7.03601 7.74388 8.65109 9.7013 10.8658 9.9223C11.1297 9.94598 29.1194 11.7376 53.4175 11.8166C65.6505 11.856 79.4826 11.4614 93.4666 10.1985Z" fill="#56BDDA"/>
<path opacity="0.6" d="M10.3941 18.8095C10.6579 18.8411 28.6476 20.617 52.9457 20.6959C65.1787 20.7354 79.0188 20.3486 92.9948 19.0858C95.1456 18.8885 96.7447 17.0494 96.6407 14.9263C52.1542 18.8806 17.8298 15.8892 6.78815 14.6579C6.68421 16.7574 8.25131 18.5964 10.3941 18.8095Z" fill="#56BDDA"/>
<path d="M12.6488 3.27652C12.6488 3.27652 40.9046 5.54176 70.6556 4.3973C70.6556 4.3973 71.8549 4.42098 72.2467 4.81562C72.8303 5.3918 72.4945 6.40997 70.7515 6.45733C58.6785 6.85197 32.5094 8.99092 12.6488 3.27652Z" fill="#91D7EE"/>
<path d="M14.6237 11.6902C14.6237 11.6902 45.478 14.2791 71.1193 13.1267C71.1193 13.1267 73.0063 12.9215 73.2781 14.5159C73.5499 16.1023 70.8955 15.9287 70.8955 15.9287C70.8955 15.9287 23.1948 16.3391 14.6237 11.6902Z" fill="#91D7EE"/>
</g>
</svg>
