<svg width="160" height="259" viewBox="0 0 160 259" fill="none" xmlns="http://www.w3.org/2000/svg">
<path d="M131.668 64.7207L131.734 42.9778L19.7217 42.6056L19.644 64.3484C10.6498 70.1728 4.69422 80.1793 4.64986 91.5872L4.13971 242.747C4.10643 251.33 35.836 258.37 74.9961 258.501C114.167 258.633 145.93 251.79 145.952 243.218L146.474 92.047C146.507 80.6501 140.618 70.5998 131.668 64.7207Z" fill="#84BCD5"/>
<path d="M129.749 65.6075L129.827 44.6091L21.6292 44.2479L21.5516 65.2462C12.8678 70.8735 7.11193 80.5407 7.06757 91.5653L6.59068 231.854C6.5685 240.141 37.2001 246.951 75.0294 247.072C112.859 247.192 143.546 240.59 143.579 232.303L144.045 92.0142C144.089 80.9895 138.4 71.2896 129.749 65.6075Z" fill="#91D7EE"/>
<path d="M19.1751 30.2786L19.1359 41.7412L133.234 42.1214L133.273 30.6588L19.1751 30.2786Z" fill="#4BBADB"/>
<path d="M77.5802 50.7179C43.8765 50.6084 18.9232 48.1342 18.5572 48.0904C15.4963 47.7838 13.256 45.0687 13.5776 42.0361C13.8882 39.0035 16.6386 36.8139 19.6995 37.1204C20.254 37.1752 75.351 42.6163 132.112 37.4927C135.184 37.208 137.901 39.4414 138.189 42.474C138.466 45.5066 136.204 48.1889 133.143 48.4736C113.746 50.2362 94.5485 50.7726 77.5802 50.7179Z" fill="#91D7EE"/>
<path d="M78.2345 38.3906C44.5308 38.2811 19.5775 35.8068 19.2115 35.763C16.1395 35.4565 13.9103 32.7414 14.2209 29.7088C14.5314 26.6871 17.2818 24.4866 20.3427 24.7931C20.8973 24.8478 75.9942 30.289 132.755 25.1544C135.827 24.8697 138.544 27.1141 138.832 30.1357C139.11 33.1684 136.858 35.8506 133.786 36.1353C114.389 37.8979 95.2027 38.4453 78.2345 38.3906Z" fill="#91D7EE"/>
<path opacity="0.6" d="M133.786 36.1463C136.781 35.8726 138.999 33.3217 138.843 30.3767C80.6633 37.8323 30.6568 31.9313 14.2542 29.5118C14.2431 29.5775 14.232 29.6432 14.2209 29.7088C13.8993 32.7415 16.1395 35.4566 19.2115 35.7631C19.5775 35.796 44.5309 38.2812 78.2345 38.3907C95.2028 38.4454 114.389 37.898 133.786 36.1463Z" fill="#56BDDA"/>
<path opacity="0.6" d="M18.5572 48.0905C18.9232 48.1343 43.8765 50.5976 77.5802 50.7071C94.5484 50.7618 113.746 50.2254 133.132 48.4737C136.115 48.2 138.333 45.6491 138.189 42.7041C76.4822 48.1891 28.8713 44.0397 13.5554 42.3318C13.4113 45.244 15.585 47.7949 18.5572 48.0905Z" fill="#56BDDA"/>
<path d="M21.6847 26.5449C21.6847 26.5449 60.8781 29.687 102.145 28.0995C102.145 28.0995 103.809 28.1323 104.352 28.6797C105.162 29.4789 104.696 30.8912 102.278 30.9569C85.532 31.5043 49.2332 34.4712 21.6847 26.5449Z" fill="#91D7EE"/>
<path d="M24.424 38.2155C24.424 38.2155 67.2218 41.8064 102.789 40.208C102.789 40.208 105.406 39.9233 105.783 42.1349C106.16 44.3354 102.478 44.0946 102.478 44.0946C102.478 44.0946 36.3129 44.6639 24.424 38.2155Z" fill="#91D7EE"/>
</svg>
